<svg xmlns="http://www.w3.org/2000/svg" viewBox="0 0 1107.08 1107.08"><defs><style>.cls-1{fill:#131a6e;}.cls-2{fill:#fff;}</style></defs><g id="Lag_2" data-name="Lag 2"><g id="Lag_8_kopi_4" data-name="Lag 8 kopi 4"><circle class="cls-1" cx="553.54" cy="553.54" r="553.54"/><path class="cls-2" d="M667.85,937.13H858.36c26.6-60.78,46.28-194.79,43.84-273.42-2.85-91.86-35.94-169-58.86-220.81a119,119,0,0,1-6.21-17.7c-8.45-32-19.1-69.6-18.45-113,.5-33.27,12.31-76.71,14.5-100.26,3.69-39.75-2.82-73-23.09-87.1a78.25,78.25,0,0,0-76-7.42c-40,17.41-40.48,58.12-33.45,104.47,3.19,21,12.95,58.56,14.46,90.84,2.66,57.28-19.49,113.76-31.34,137.62-24,49.58-57.8,113.71-58.13,214.4C625.31,753.86,641.08,881.12,667.85,937.13Z"/><rect class="cls-1" x="709.15" y="295.41" width="113.19" height="32.04"/><polygon class="cls-1" points="843.14 397.37 685.58 397.37 701.24 353.54 829.88 353.54 843.14 397.37"/><path class="cls-2" d="M430.91,961.3a269.65,269.65,0,1,1,190.69-79A267.94,267.94,0,0,1,430.91,961.3Z"/><path class="cls-1" d="M430.91,437c140.65,0,254.67,114,254.67,254.67S571.56,946.3,430.91,946.3s-254.67-114-254.67-254.67S290.26,437,430.91,437m0-30a283.91,283.91,0,1,0,110.82,22.39A282.81,282.81,0,0,0,430.91,407Z"/><circle class="cls-1" cx="373.67" cy="520.39" r="33.43"/><circle class="cls-1" cx="488.15" cy="520.39" r="33.43"/><circle class="cls-1" cx="430.91" cy="602.58" r="33.43"/></g></g></svg>