<svg xmlns="http://www.w3.org/2000/svg" viewBox="0 0 726.17 827.84"><defs><style>.cls-1{fill:#fff;}</style></defs><g id="Lag_2" data-name="Lag 2"><g id="Lag_8_kopi_4" data-name="Lag 8 kopi 4"><path class="cls-1" d="M537.35,184.55H643.49c3-30,11.62-63.72,13.45-83.46,3.69-39.76-2.82-73-23.09-87.11a78.27,78.27,0,0,0-76-7.41C517.83,24,517.34,64.68,524.37,111,527,128.37,534.1,157,537.35,184.55Z"/><path class="cls-1" d="M642.68,216.59H539a245.66,245.66,0,0,1-2.06,26.09H645.05C643.9,234.24,643.07,225.55,642.68,216.59Z"/><path class="cls-1" d="M726,552.85C723.11,461,690,383.83,667.1,332a117.6,117.6,0,0,1-6.2-17.71c-2.34-8.84-4.85-18.11-7.23-27.82h-126a323.87,323.87,0,0,1-20.18,53c-8.48,17.53-18.19,36.9-27.21,59a284.46,284.46,0,0,1-10.11,359c6,27.55,13.21,51.54,21.45,68.78h190.5C708.72,765.49,728.4,631.48,726,552.85Z"/><path class="cls-1" d="M254.67,318.5C114,318.5,0,432.52,0,573.17S114,827.84,254.67,827.84s254.67-114,254.67-254.67S395.32,318.5,254.67,318.5ZM197.43,444.36a33.43,33.43,0,1,1,33.43-33.43A33.43,33.43,0,0,1,197.43,444.36Zm57.24,82.19a33.44,33.44,0,1,1,33.43-33.43A33.43,33.43,0,0,1,254.67,526.55Zm57.24-82.19a33.43,33.43,0,1,1,33.43-33.43A33.43,33.43,0,0,1,311.91,444.36Z"/></g></g></svg>