<svg xmlns="http://www.w3.org/2000/svg" viewBox="0 0 3783.15 932.69"><defs><style>.cls-1,.cls-3{fill:#0f1b72;}.cls-2{fill:#fff;}.cls-3{font-size:412.2px;font-family:Halcom-Black, Halcom;font-weight:800;}.cls-4{letter-spacing:-0.03em;}</style></defs><g id="Lag_2" data-name="Lag 2"><g id="Lag_17" data-name="Lag 17"><path class="cls-1" d="M517.93,820.07H707c26.4-60.33,45.93-193.33,43.51-271.37-2.83-91.17-35.67-167.75-58.42-219.15A118.81,118.81,0,0,1,685.93,312c-8.39-31.75-18.95-69.08-18.31-112.14.5-33,12.22-76.14,14.39-99.51,3.66-39.46-2.8-72.47-22.92-86.45a77.68,77.68,0,0,0-75.46-7.36C544,23.8,543.46,64.2,550.44,110.21c3.16,20.85,12.85,58.11,14.34,90.16,2.65,56.84-19.33,112.9-31.1,136.57-23.81,49.21-57.37,112.87-57.69,212.8C475.7,638.17,491.35,764.47,517.93,820.07Z"/><rect class="cls-2" x="558.91" y="183.16" width="112.34" height="31.8"/><polygon class="cls-2" points="691.89 284.36 535.52 284.36 551.05 240.86 678.73 240.86 691.89 284.36"/><path class="cls-1" d="M282.76,844.17a267.76,267.76,0,1,1,189.33-78.42A266,266,0,0,1,282.76,844.17Z"/><path class="cls-2" d="M282.76,323.65c139.59,0,252.76,113.16,252.76,252.76S422.35,829.17,282.76,829.17,30,716,30,576.41,143.16,323.65,282.76,323.65m0-30a281.93,281.93,0,1,0,110.07,22.23,281.05,281.05,0,0,0-110.07-22.23Z"/><circle class="cls-2" cx="225.95" cy="406.45" r="33.18"/><circle class="cls-2" cx="339.57" cy="406.45" r="33.18"/><circle class="cls-2" cx="282.76" cy="488.02" r="33.18"/><text class="cls-3" transform="translate(802.13 410.79)">ÅRHUS<tspan x="0" y="374.33">B</tspan><tspan class="cls-4" x="291.84" y="374.33">O</tspan><tspan x="633.96" y="374.33">WLINGHAL</tspan></text></g></g></svg>