<svg xmlns="http://www.w3.org/2000/svg" viewBox="0 0 3625.05 932.69">
<defs>
    <style type="text/css">
        @import url("https://use.typekit.net/mao7wyd.css");
        .cls-1{
            font-size:412.2px;
            font-family:"halcom", sans-serif;
            font-weight:800;
            letter-spacing:-0.02em;
        }
        .cls-1,.cls-4{
            fill:#0f1b72;
        }
        .cls-2{letter-spacing:-0.03em;}.cls-3{letter-spacing:-0.06em;}
    </style>
    </defs>
    <g id="Lag_2" data-name="Lag 2"><g id="Lag_17" data-name="Lag 17"><text class="cls-1" transform="translate(745.15 410.79)">ÅRHUS<tspan class="cls-2"><tspan x="0" y="374.33">B</tspan><tspan class="cls-3" x="281.53" y="374.33">O</tspan><tspan x="613.35" y="374.33">WLINGHAL</tspan></tspan></text><path class="cls-4" d="M513.35,176.31h101.4c2.89-28.66,11.1-60.88,12.85-79.73,3.52-38-2.7-69.76-22.06-83.22a74.79,74.79,0,0,0-72.63-7.09c-38.21,16.63-38.68,55.52-32,99.81C503.46,122.64,510.25,149.94,513.35,176.31Z"/><path class="cls-4" d="M614,206.92H514.9a232,232,0,0,1-2,24.92h103.3C615.14,223.78,614.35,215.47,614,206.92Z"/><path class="cls-4" d="M693.54,528.16c-2.72-87.76-34.34-161.47-56.24-210.95a113.43,113.43,0,0,1-5.92-16.92c-2.24-8.44-4.63-17.3-6.91-26.58H504.11a309.28,309.28,0,0,1-19.29,50.62c-8.1,16.75-17.37,35.24-26,56.4a271.76,271.76,0,0,1-9.66,342.93c5.74,26.32,12.62,49.24,20.49,65.7h182C677.07,731.3,695.86,603.27,693.54,528.16Z"/><path class="cls-4" d="M243.3,304.27C108.93,304.27,0,413.2,0,547.57s108.93,243.3,243.3,243.3,243.29-108.93,243.29-243.3S377.67,304.27,243.3,304.27ZM188.61,424.51a31.94,31.94,0,1,1,31.94-31.94A31.93,31.93,0,0,1,188.61,424.51ZM243.3,503a31.94,31.94,0,1,1,31.93-31.94A31.94,31.94,0,0,1,243.3,503ZM298,424.51a31.94,31.94,0,1,1,31.94-31.94A31.94,31.94,0,0,1,298,424.51Z"/></g></g></svg>